# xmcd
#
# Track frame offsets: 
#        150
#        32230
#        58006
#        80781
#        112705
#        136852
#        161358
#        182375
#        208582
#        234531
#        267120
#        296855
#
# Disc length: 4281 seconds
#
# Revision: 4
# Processed by: cddbd v1.5.2PL0 Copyright (c) Steve Scherf et al.
# Submitted via: ExactAudioCopy v0.99pb4
#
DISCID=a210b70c
DTITLE=Various Artist - D.Trance 32 - CD 3
DYEAR=2005
DGENRE=Blues
TTITLE0=Various  Special Turntable Mix by Gary D.
TTITLE1=Various  Special Turntable Mix by Gary D.
TTITLE2=Various  Special Turntable Mix by Gary D.
TTITLE3=Various  Special Turntable Mix by Gary D.
TTITLE4=Various  Special Turntable Mix by Gary D.
TTITLE5=Various  Special Turntable Mix by Gary D.
TTITLE6=Various  Special Turntable Mix by Gary D.
TTITLE7=Various  Special Turntable Mix by Gary D.
TTITLE8=Various  Special Turntable Mix by Gary D.
TTITLE9=Various  Special Turntable Mix by Gary D.
TTITLE10=Various  Special Turntable Mix by Gary D.
TTITLE11=Various  Special Turntable Mix by Gary D.
EXTD=YEAR: 2005
EXTT0=
EXTT1=
EXTT2=
EXTT3=
EXTT4=
EXTT5=
EXTT6=
EXTT7=
EXTT8=
EXTT9=
EXTT10=
EXTT11=
PLAYORDER=
